<svg width="504" height="248" viewBox="0 0 504 248" fill="none" xmlns="http://www.w3.org/2000/svg">
    <path d="M11.6875 5H27.5625L50.9375 71.8125L74.3125 5H90.1875L57.3125 96H44.5625L11.6875 5ZM3.125 5H18.9375L21.8125 70.125V96H3.125V5ZM82.9375 5H98.8125V96H80.0625V70.125L82.9375 5ZM131.628 88.375L149.565 28.375H168.878L141.69 106.188C141.107 107.896 140.315 109.729 139.315 111.688C138.357 113.646 137.044 115.5 135.378 117.25C133.753 119.042 131.69 120.5 129.19 121.625C126.732 122.75 123.711 123.312 120.128 123.312C118.419 123.312 117.023 123.208 115.94 123C114.857 122.792 113.565 122.5 112.065 122.125V108.938C112.523 108.938 113.003 108.938 113.503 108.938C114.003 108.979 114.482 109 114.94 109C117.315 109 119.253 108.729 120.753 108.188C122.253 107.646 123.461 106.812 124.378 105.688C125.294 104.604 126.023 103.188 126.565 101.438L131.628 88.375ZM124.128 28.375L138.815 77.375L141.378 96.4375L129.128 97.75L104.815 28.375H124.128ZM407.64 237.312C407.64 234.646 408.557 232.417 410.39 230.625C412.265 228.833 414.744 227.938 417.828 227.938C420.911 227.938 423.369 228.833 425.203 230.625C427.078 232.417 428.015 234.646 428.015 237.312C428.015 239.979 427.078 242.208 425.203 244C423.369 245.792 420.911 246.688 417.828 246.688C414.744 246.688 412.265 245.792 410.39 244C408.557 242.208 407.64 239.979 407.64 237.312Z" fill="#4378FF"/>
    <path d="M251.32 72.1875C251.32 70.5625 251.07 69.1042 250.57 67.8125C250.112 66.4792 249.237 65.2708 247.945 64.1875C246.653 63.0625 244.841 61.9583 242.508 60.875C240.174 59.7917 237.153 58.6667 233.445 57.5C229.32 56.1667 225.403 54.6667 221.695 53C218.028 51.3333 214.778 49.3958 211.945 47.1875C209.153 44.9375 206.945 42.3333 205.32 39.375C203.737 36.4167 202.945 32.9792 202.945 29.0625C202.945 25.2708 203.778 21.8333 205.445 18.75C207.112 15.625 209.445 12.9583 212.445 10.75C215.445 8.5 218.987 6.77083 223.07 5.5625C227.195 4.35417 231.716 3.75 236.633 3.75C243.341 3.75 249.195 4.95833 254.195 7.375C259.195 9.79167 263.07 13.1042 265.82 17.3125C268.612 21.5208 270.008 26.3333 270.008 31.75H251.383C251.383 29.0833 250.82 26.75 249.695 24.75C248.612 22.7083 246.945 21.1042 244.695 19.9375C242.487 18.7708 239.695 18.1875 236.32 18.1875C233.07 18.1875 230.362 18.6875 228.195 19.6875C226.028 20.6458 224.403 21.9583 223.32 23.625C222.237 25.25 221.695 27.0833 221.695 29.125C221.695 30.6667 222.07 32.0625 222.82 33.3125C223.612 34.5625 224.778 35.7292 226.32 36.8125C227.862 37.8958 229.758 38.9167 232.008 39.875C234.258 40.8333 236.862 41.7708 239.82 42.6875C244.778 44.1875 249.133 45.875 252.883 47.75C256.674 49.625 259.841 51.7292 262.383 54.0625C264.924 56.3958 266.841 59.0417 268.133 62C269.424 64.9583 270.07 68.3125 270.07 72.0625C270.07 76.0208 269.299 79.5625 267.758 82.6875C266.216 85.8125 263.987 88.4583 261.07 90.625C258.153 92.7917 254.674 94.4375 250.633 95.5625C246.591 96.6875 242.07 97.25 237.07 97.25C232.57 97.25 228.133 96.6667 223.758 95.5C219.383 94.2917 215.403 92.4792 211.82 90.0625C208.278 87.6458 205.445 84.5625 203.32 80.8125C201.195 77.0625 200.133 72.625 200.133 67.5H218.945C218.945 70.3333 219.383 72.7292 220.258 74.6875C221.133 76.6458 222.362 78.2292 223.945 79.4375C225.57 80.6458 227.487 81.5208 229.695 82.0625C231.945 82.6042 234.403 82.875 237.07 82.875C240.32 82.875 242.987 82.4167 245.07 81.5C247.195 80.5833 248.758 79.3125 249.758 77.6875C250.799 76.0625 251.32 74.2292 251.32 72.1875ZM310.26 97.25C305.01 97.25 300.302 96.4167 296.135 94.75C291.968 93.0417 288.427 90.6875 285.51 87.6875C282.635 84.6875 280.427 81.2083 278.885 77.25C277.343 73.25 276.573 69 276.573 64.5V62C276.573 56.875 277.302 52.1875 278.76 47.9375C280.218 43.6875 282.302 40 285.01 36.875C287.76 33.75 291.093 31.3542 295.01 29.6875C298.927 27.9792 303.343 27.125 308.26 27.125C313.052 27.125 317.302 27.9167 321.01 29.5C324.718 31.0833 327.823 33.3333 330.323 36.25C332.864 39.1667 334.781 42.6667 336.073 46.75C337.364 50.7917 338.01 55.2917 338.01 60.25V67.75H284.26V55.75H320.323V54.375C320.323 51.875 319.864 49.6458 318.948 47.6875C318.073 45.6875 316.739 44.1042 314.948 42.9375C313.156 41.7708 310.864 41.1875 308.073 41.1875C305.698 41.1875 303.656 41.7083 301.948 42.75C300.239 43.7917 298.843 45.25 297.76 47.125C296.718 49 295.927 51.2083 295.385 53.75C294.885 56.25 294.635 59 294.635 62V64.5C294.635 67.2083 295.01 69.7083 295.76 72C296.552 74.2917 297.656 76.2708 299.073 77.9375C300.531 79.6042 302.281 80.8958 304.323 81.8125C306.406 82.7292 308.76 83.1875 311.385 83.1875C314.635 83.1875 317.656 82.5625 320.448 81.3125C323.281 80.0208 325.718 78.0833 327.76 75.5L336.51 85C335.093 87.0417 333.156 89 330.698 90.875C328.281 92.75 325.364 94.2917 321.948 95.5C318.531 96.6667 314.635 97.25 310.26 97.25ZM342.825 62.875V61.5625C342.825 56.6042 343.533 52.0417 344.95 47.875C346.367 43.6667 348.429 40.0208 351.138 36.9375C353.846 33.8542 357.179 31.4583 361.138 29.75C365.096 28 369.638 27.125 374.763 27.125C379.888 27.125 384.45 28 388.45 29.75C392.45 31.4583 395.804 33.8542 398.513 36.9375C401.263 40.0208 403.346 43.6667 404.763 47.875C406.179 52.0417 406.888 56.6042 406.888 61.5625V62.875C406.888 67.7917 406.179 72.3542 404.763 76.5625C403.346 80.7292 401.263 84.375 398.513 87.5C395.804 90.5833 392.471 92.9792 388.513 94.6875C384.554 96.3958 380.013 97.25 374.888 97.25C369.763 97.25 365.2 96.3958 361.2 94.6875C357.242 92.9792 353.888 90.5833 351.138 87.5C348.429 84.375 346.367 80.7292 344.95 76.5625C343.533 72.3542 342.825 67.7917 342.825 62.875ZM360.825 61.5625V62.875C360.825 65.7083 361.075 68.3542 361.575 70.8125C362.075 73.2708 362.867 75.4375 363.95 77.3125C365.075 79.1458 366.533 80.5833 368.325 81.625C370.117 82.6667 372.304 83.1875 374.888 83.1875C377.388 83.1875 379.533 82.6667 381.325 81.625C383.117 80.5833 384.554 79.1458 385.638 77.3125C386.721 75.4375 387.513 73.2708 388.013 70.8125C388.554 68.3542 388.825 65.7083 388.825 62.875V61.5625C388.825 58.8125 388.554 56.2292 388.013 53.8125C387.513 51.3542 386.7 49.1875 385.575 47.3125C384.492 45.3958 383.054 43.8958 381.263 42.8125C379.471 41.7292 377.304 41.1875 374.763 41.1875C372.221 41.1875 370.054 41.7292 368.263 42.8125C366.513 43.8958 365.075 45.3958 363.95 47.3125C362.867 49.1875 362.075 51.3542 361.575 53.8125C361.075 56.2292 360.825 58.8125 360.825 61.5625ZM455.39 79.8125V28.375H473.39V96H456.453L455.39 79.8125ZM457.39 65.9375L462.703 65.8125C462.703 70.3125 462.182 74.5 461.14 78.375C460.098 82.2083 458.536 85.5417 456.453 88.375C454.369 91.1667 451.744 93.3542 448.578 94.9375C445.411 96.4792 441.682 97.25 437.39 97.25C434.098 97.25 431.057 96.7917 428.265 95.875C425.515 94.9167 423.14 93.4375 421.14 91.4375C419.182 89.3958 417.64 86.7917 416.515 83.625C415.432 80.4167 414.89 76.5625 414.89 72.0625V28.375H432.89V72.1875C432.89 74.1875 433.119 75.875 433.578 77.25C434.078 78.625 434.765 79.75 435.64 80.625C436.515 81.5 437.536 82.125 438.703 82.5C439.911 82.875 441.244 83.0625 442.703 83.0625C446.411 83.0625 449.328 82.3125 451.453 80.8125C453.619 79.3125 455.14 77.2708 456.015 74.6875C456.932 72.0625 457.39 69.1458 457.39 65.9375ZM503.58 0V96H485.517V0H503.58ZM75.25 198.438V234.5C73.8333 236.208 71.6458 238.062 68.6875 240.062C65.7292 242.021 61.9167 243.708 57.25 245.125C52.5833 246.542 46.9375 247.25 40.3125 247.25C34.4375 247.25 29.0833 246.292 24.25 244.375C19.4167 242.417 15.25 239.562 11.75 235.812C8.29167 232.062 5.625 227.479 3.75 222.062C1.875 216.604 0.9375 210.375 0.9375 203.375V197.688C0.9375 190.688 1.83333 184.458 3.625 179C5.45833 173.542 8.0625 168.938 11.4375 165.188C14.8125 161.438 18.8333 158.583 23.5 156.625C28.1667 154.667 33.3542 153.688 39.0625 153.688C46.9792 153.688 53.4792 154.979 58.5625 157.562C63.6458 160.104 67.5208 163.646 70.1875 168.188C72.8958 172.688 74.5625 177.854 75.1875 183.688H57C56.5417 180.604 55.6667 177.917 54.375 175.625C53.0833 173.333 51.2292 171.542 48.8125 170.25C46.4375 168.958 43.3542 168.312 39.5625 168.312C36.4375 168.312 33.6458 168.958 31.1875 170.25C28.7708 171.5 26.7292 173.354 25.0625 175.812C23.3958 178.271 22.125 181.312 21.25 184.938C20.375 188.562 19.9375 192.771 19.9375 197.562V203.375C19.9375 208.125 20.3958 212.333 21.3125 216C22.2292 219.625 23.5833 222.688 25.375 225.188C27.2083 227.646 29.4583 229.5 32.125 230.75C34.7917 232 37.8958 232.625 41.4375 232.625C44.3958 232.625 46.8542 232.375 48.8125 231.875C50.8125 231.375 52.4167 230.771 53.625 230.062C54.875 229.312 55.8333 228.604 56.5 227.938V211.812H39.375V198.438H75.25ZM104.69 193.125V246H86.69V178.375H103.628L104.69 193.125ZM125.065 177.938L124.753 194.625C123.878 194.5 122.815 194.396 121.565 194.312C120.357 194.188 119.253 194.125 118.253 194.125C115.711 194.125 113.503 194.458 111.628 195.125C109.794 195.75 108.253 196.688 107.003 197.938C105.794 199.188 104.878 200.708 104.253 202.5C103.669 204.292 103.336 206.333 103.253 208.625L99.6275 207.5C99.6275 203.125 100.065 199.104 100.94 195.438C101.815 191.729 103.086 188.5 104.753 185.75C106.461 183 108.544 180.875 111.003 179.375C113.461 177.875 116.273 177.125 119.44 177.125C120.44 177.125 121.461 177.208 122.503 177.375C123.544 177.5 124.398 177.688 125.065 177.938ZM126.255 212.875V211.562C126.255 206.604 126.963 202.042 128.38 197.875C129.797 193.667 131.859 190.021 134.567 186.938C137.276 183.854 140.609 181.458 144.567 179.75C148.526 178 153.067 177.125 158.192 177.125C163.317 177.125 167.88 178 171.88 179.75C175.88 181.458 179.234 183.854 181.942 186.938C184.692 190.021 186.776 193.667 188.192 197.875C189.609 202.042 190.317 206.604 190.317 211.562V212.875C190.317 217.792 189.609 222.354 188.192 226.562C186.776 230.729 184.692 234.375 181.942 237.5C179.234 240.583 175.901 242.979 171.942 244.688C167.984 246.396 163.442 247.25 158.317 247.25C153.192 247.25 148.63 246.396 144.63 244.688C140.672 242.979 137.317 240.583 134.567 237.5C131.859 234.375 129.797 230.729 128.38 226.562C126.963 222.354 126.255 217.792 126.255 212.875ZM144.255 211.562V212.875C144.255 215.708 144.505 218.354 145.005 220.812C145.505 223.271 146.297 225.438 147.38 227.312C148.505 229.146 149.963 230.583 151.755 231.625C153.547 232.667 155.734 233.188 158.317 233.188C160.817 233.188 162.963 232.667 164.755 231.625C166.547 230.583 167.984 229.146 169.067 227.312C170.151 225.438 170.942 223.271 171.442 220.812C171.984 218.354 172.255 215.708 172.255 212.875V211.562C172.255 208.812 171.984 206.229 171.442 203.812C170.942 201.354 170.13 199.188 169.005 197.312C167.922 195.396 166.484 193.896 164.692 192.812C162.901 191.729 160.734 191.188 158.192 191.188C155.651 191.188 153.484 191.729 151.692 192.812C149.942 193.896 148.505 195.396 147.38 197.312C146.297 199.188 145.505 201.354 145.005 203.812C144.505 206.229 144.255 208.812 144.255 211.562ZM238.82 229.812V178.375H256.82V246H239.883L238.82 229.812ZM240.82 215.938L246.133 215.812C246.133 220.312 245.612 224.5 244.57 228.375C243.528 232.208 241.966 235.542 239.883 238.375C237.799 241.167 235.174 243.354 232.008 244.938C228.841 246.479 225.112 247.25 220.82 247.25C217.528 247.25 214.487 246.792 211.695 245.875C208.945 244.917 206.57 243.438 204.57 241.438C202.612 239.396 201.07 236.792 199.945 233.625C198.862 230.417 198.32 226.562 198.32 222.062V178.375H216.32V222.188C216.32 224.188 216.549 225.875 217.008 227.25C217.508 228.625 218.195 229.75 219.07 230.625C219.945 231.5 220.966 232.125 222.133 232.5C223.341 232.875 224.674 233.062 226.133 233.062C229.841 233.062 232.758 232.312 234.883 230.812C237.049 229.312 238.57 227.271 239.445 224.688C240.362 222.062 240.82 219.146 240.82 215.938ZM285.635 192.812V246H267.635V178.375H284.51L285.635 192.812ZM283.01 209.812H278.135C278.135 204.812 278.781 200.312 280.073 196.312C281.364 192.271 283.177 188.833 285.51 186C287.843 183.125 290.614 180.938 293.823 179.438C297.073 177.896 300.698 177.125 304.698 177.125C307.864 177.125 310.76 177.583 313.385 178.5C316.01 179.417 318.26 180.875 320.135 182.875C322.052 184.875 323.51 187.521 324.51 190.812C325.552 194.104 326.073 198.125 326.073 202.875V246H307.948V202.812C307.948 199.812 307.531 197.479 306.698 195.812C305.864 194.146 304.635 192.979 303.01 192.312C301.427 191.604 299.468 191.25 297.135 191.25C294.718 191.25 292.614 191.729 290.823 192.688C289.073 193.646 287.614 194.979 286.448 196.688C285.323 198.354 284.468 200.312 283.885 202.562C283.302 204.812 283.01 207.229 283.01 209.812ZM377.138 231.25V150H395.263V246H378.95L377.138 231.25ZM334.388 213V211.688C334.388 206.521 334.971 201.833 336.138 197.625C337.304 193.375 339.013 189.729 341.263 186.688C343.513 183.646 346.283 181.292 349.575 179.625C352.867 177.958 356.617 177.125 360.825 177.125C364.783 177.125 368.242 177.958 371.2 179.625C374.2 181.292 376.742 183.667 378.825 186.75C380.95 189.792 382.658 193.396 383.95 197.562C385.242 201.688 386.179 206.208 386.763 211.125V214C386.179 218.708 385.242 223.083 383.95 227.125C382.658 231.167 380.95 234.708 378.825 237.75C376.742 240.75 374.2 243.083 371.2 244.75C368.2 246.417 364.7 247.25 360.7 247.25C356.492 247.25 352.742 246.396 349.45 244.688C346.2 242.979 343.45 240.583 341.2 237.5C338.992 234.417 337.304 230.792 336.138 226.625C334.971 222.458 334.388 217.917 334.388 213ZM352.388 211.688V213C352.388 215.792 352.596 218.396 353.013 220.812C353.471 223.229 354.2 225.375 355.2 227.25C356.242 229.083 357.575 230.521 359.2 231.562C360.867 232.562 362.888 233.062 365.263 233.062C368.346 233.062 370.888 232.375 372.888 231C374.888 229.583 376.408 227.646 377.45 225.188C378.533 222.729 379.158 219.896 379.325 216.688V208.5C379.2 205.875 378.825 203.521 378.2 201.438C377.617 199.312 376.742 197.5 375.575 196C374.45 194.5 373.033 193.333 371.325 192.5C369.658 191.667 367.679 191.25 365.388 191.25C363.054 191.25 361.054 191.792 359.388 192.875C357.721 193.917 356.367 195.354 355.325 197.188C354.325 199.021 353.575 201.188 353.075 203.688C352.617 206.146 352.388 208.812 352.388 211.688Z" fill="#E2E2E2"/>
</svg>
