<svg width="19" height="19" viewBox="0 0 19 19" fill="none" xmlns="http://www.w3.org/2000/svg">
    <path d="M2.95436 17.8435L8.05908 12.7425L5.4196 10.103L0.314884 15.2077C-0.104022 15.6267 -0.104022 16.3162 0.314884 16.7351L1.42332 17.8435C1.84593 18.2625 2.53916 18.2625 2.95436 17.8435Z" fill="white"/>
    <path d="M6.55766 10.2182L7.94042 11.601L9.51595 10.0254C11.6624 11.5157 14.6355 11.3081 16.5484 9.39521C18.6948 7.24878 18.6948 3.76037 16.5484 1.61024C14.402 -0.539901 10.9135 -0.536194 8.7634 1.61024C6.85052 3.52312 6.64292 6.49623 8.13319 8.64266L6.55766 10.2182ZM9.84589 2.67789C11.4029 1.12089 13.9274 1.12089 15.4807 2.67789C17.0377 4.23489 17.0377 6.75944 15.4807 8.31273C13.9237 9.86973 11.3992 9.86972 9.84589 8.31273C8.28889 6.75944 8.28889 4.23488 9.84589 2.67789Z" fill="white"/>
</svg>
